# xmcd
#
# Track frame offsets:
#	150
#	12645
#	22972
#	33124
#	45769
#	55823
#	68500
#	81429
#	93815
#	108042
#	118398
#	129949
#	140408
#	150833
#	162423
#	173540
#	185117
#	196630
#	206645
#	219699
#	229624
#	241338
#
# Disc length: 3364 seconds
#
# Revision: 0
# Processed by: cddbd v1.5.2PL0 Copyright (c) Steve Scherf et al.
# Submitted via: EZCDAudioConverter 2.0.4.1
#
DISCID=140d2216
DTITLE=Jan Howard - Through The Years CD 2
DYEAR=1900
DGENRE=
TTITLE0=Jan Howard - I Wish I Could Fall In Love Again
TTITLE1=Jan Howard - Last Time
TTITLE2=Jan Howard - Evil On Your Mind
TTITLE3=Jan Howard - Put It Off Until Tomorrow
TTITLE4=Jan Howard - Take Good Care Of Him
TTITLE5=Jan Howard - We'll Sing In The Sunshine
TTITLE6=Jan Howard - Bad Seed
TTITLE7=Jan Howard and Bill Anderson - For Loving You
TTITLE8=Jan Howard - Time
TTITLE9=Jan Howard - Roll Over And Play Dead
TTITLE10=Jan Howard - Fallen Star
TTITLE11=Jan Howard - Minute You're Gone
TTITLE12=Jan Howard - Count Your Blessings Woman
TTITLE13=Jan Howard - You Don't Know Me
TTITLE14=Jan Howard - Day The World Stood Still
TTITLE15=Jan Howard - I Hurt All Over
TTITLE16=Jan Howard - When We Tried
TTITLE17=Jan Howard - Until My Dreams Come True
TTITLE18=Jan Howard and Bill Anderson - If It's All The Same To You
TTITLE19=Jan Howard - Son Of A Preacher Man
TTITLE20=Jan Howard - Shame On Me
TTITLE21=Jan Howard - Ribbon Of Darkness
EXTD=
EXTT0=
EXTT1=
EXTT2=
EXTT3=
EXTT4=
EXTT5=
EXTT6=
EXTT7=
EXTT8=
EXTT9=
EXTT10=
EXTT11=
EXTT12=
EXTT13=
EXTT14=
EXTT15=
EXTT16=
EXTT17=
EXTT18=
EXTT19=
EXTT20=
EXTT21=
PLAYORDER=
